<svg xmlns="http://www.w3.org/2000/svg" viewBox="0 0 750 500"><g id="freepik--Character--inject-8"><path d="M448.92,237.33c-29.25,29.64-66,92-59.18,104.65,7.64,14.08,48.36-27.48,48.21-29.91-.12-1.83,14.21-39.71,25.07-67.26S456.15,230,448.92,237.33Z" style="fill: rgb(255, 196, 192);"></path><path d="M438.22,312.12c1.25-4.05,20.74-54,26.31-69.8s.41-20.68-15.51-6.21-50.8,62.79-58.76,88.45c-7.67,24.71,5.05,24.71,21.84,13.32C425.84,328.55,438.22,312.12,438.22,312.12Z" style="fill:#455a64"></path><path d="M453.56,240.58a11.46,11.46,0,0,1,1,3.2,12,12,0,0,1-1.78-2.84,12.17,12.17,0,0,1-1-3.2A12,12,0,0,1,453.56,240.58Zm-51.78,63a11.57,11.57,0,0,0,1,3.2,12,12,0,0,0,1.78,2.84,11.46,11.46,0,0,0-1-3.2A12,12,0,0,0,401.78,303.59ZM419,277.35a12.4,12.4,0,0,0,1,3.2,11.7,11.7,0,0,0,1.78,2.83,11.67,11.67,0,0,0-1-3.2A11.9,11.9,0,0,0,419,277.35Zm16.85-2a11.82,11.82,0,0,0,3.2-1,11.6,11.6,0,0,0,2.84-1.77,11.46,11.46,0,0,0-3.2,1A11.64,11.64,0,0,0,435.87,275.38Zm-16.14,26.53a11.5,11.5,0,0,0,3.19-1,11.76,11.76,0,0,0,2.84-1.78,11.57,11.57,0,0,0-3.2,1A11.7,11.7,0,0,0,419.73,301.91Zm13.12-45.45a12.17,12.17,0,0,0,3.2-1,12,12,0,0,0,2.84-1.78,11.46,11.46,0,0,0-3.2,1A12,12,0,0,0,432.85,256.46Zm13.6,30.39a12.94,12.94,0,0,0-2.31,6.23,13,13,0,0,0,2.31-6.23Zm-33.78,31.62a12.94,12.94,0,0,0-2.31,6.23,12.94,12.94,0,0,0,2.31-6.23Zm18.73-2.8a10.59,10.59,0,0,0,2.75,1.47l.59-.7-.07,0A11.62,11.62,0,0,0,431.4,315.67ZM397.9,336a12.94,12.94,0,0,0-6.23-2.31,11.42,11.42,0,0,0,3,1.56A11.82,11.82,0,0,0,397.9,336Zm53.53-74.68a11.6,11.6,0,0,0,3,1.55,12.06,12.06,0,0,0,2.25.62c0-.14.1-.29.16-.44a14.07,14.07,0,0,0-2.12-1A11.38,11.38,0,0,0,451.43,261.35Z" style="fill:#37474f"></path><path d="M441.72,348.82H552.91s-17.67-87.21-60.32-125c-5.27-4.67-17.16-3.61-24.91.25-2.77,1.37-12.72,15.28-15.55,28.43S441.4,348.42,441.72,348.82Z" style="fill:#455a64"></path><path d="M451.16,258c-.87,2.94-1.59,6-2.18,9,0-.12,0-.24,0-.36,0-1.72-.06-3.47-.24-5.18a.09.09,0,0,0-.17,0,26.68,26.68,0,0,0-.14,5.21c0,.82.1,1.65.17,2.47-.24,1.37-.45,2.74-.62,4.11-.33,2.59-1.2,12.25-1.27,14.17,0,.41.45.47.56.06.52-1.95,1.91-11.91,2.35-14.47a140.6,140.6,0,0,0,1.76-15C451.37,257.88,451.19,257.88,451.16,258Z" style="fill:#263238"></path><path d="M487.4,249.46a11.46,11.46,0,0,1,1,3.2,12.93,12.93,0,0,1-2.77-6A12,12,0,0,1,487.4,249.46Zm11.51,38.61a11.46,11.46,0,0,0,1,3.2,12,12,0,0,0,1.78,2.84,11.46,11.46,0,0,0-1-3.2A12,12,0,0,0,498.91,288.07ZM535,303.92a11.46,11.46,0,0,0,1,3.2A11.76,11.76,0,0,0,537.8,310a11.57,11.57,0,0,0-1-3.2A12,12,0,0,0,535,303.92Zm-26.55,28.39a12.93,12.93,0,0,0,2.77,6,12.28,12.28,0,0,0-1-3.2A12,12,0,0,0,508.48,332.31Zm-46.36-54.85a11.67,11.67,0,0,0,1,3.2,11.9,11.9,0,0,0,1.78,2.83,12.84,12.84,0,0,0-2.77-6Zm-14.61,30.13a11.86,11.86,0,0,0,1,3.19,11.42,11.42,0,0,0,1.77,2.84,11.67,11.67,0,0,0-1-3.2A11.4,11.4,0,0,0,447.51,307.59Zm35.35,21.71a12.84,12.84,0,0,0,2.77,6,12,12,0,0,0-1-3.2A11.9,11.9,0,0,0,482.86,329.3Zm33.88-58.74a11.46,11.46,0,0,0,1,3.2,11.35,11.35,0,0,0,1.78,2.84,13.2,13.2,0,0,0-2.77-6Zm-43.1-5.29a12.4,12.4,0,0,0,3.2-1,11.7,11.7,0,0,0,2.83-1.78,11.5,11.5,0,0,0-3.19,1A11.76,11.76,0,0,0,473.64,265.27Zm-7,35.78a12.21,12.21,0,0,0,3.19-1,11.76,11.76,0,0,0,2.84-1.78,11.57,11.57,0,0,0-3.2,1A11.7,11.7,0,0,0,466.63,301.05ZM532,339a11.8,11.8,0,0,0,3.2-1,12,12,0,0,0,2.84-1.78,11.46,11.46,0,0,0-3.2,1A12,12,0,0,0,532,339Zm-65.79,6.66,1.78-.11.68-.3a12.16,12.16,0,0,0,2.84-1.78,11.65,11.65,0,0,0-3.21,1A12.87,12.87,0,0,0,466.22,345.62ZM507,310a12.93,12.93,0,0,0,6-2.77,12.93,12.93,0,0,0-6,2.77Zm-33.37-76.4a11.67,11.67,0,0,0,3.2-1,11.4,11.4,0,0,0,2.83-1.78,12.21,12.21,0,0,0-3.19,1A11.76,11.76,0,0,0,473.64,233.59ZM470,245.15a13,13,0,0,0-2.31,6.22,11.22,11.22,0,0,0,1.56-3A11.48,11.48,0,0,0,470,245.15Zm-17.66,82.76a12.94,12.94,0,0,0-2.31,6.23,11.46,11.46,0,0,0,1.57-3A11.73,11.73,0,0,0,452.36,327.91Zm47.7-62a12.94,12.94,0,0,0-2.31,6.23,11.13,11.13,0,0,0,1.56-3A11.74,11.74,0,0,0,500.06,266Zm-13.73,36.43a12.94,12.94,0,0,0-2.31,6.23,12.94,12.94,0,0,0,2.31-6.23ZM549,348.82h.29c0-.15,0-.31,0-.46Zm-31.18,0h.9l.12-.31a11.73,11.73,0,0,0,.74-3.26,11.73,11.73,0,0,0-1.56,3C517.93,348.41,517.86,348.62,517.8,348.82Zm7.34-29.54a13,13,0,0,0-2.31,6.22,13,13,0,0,0,2.31-6.22Zm-26.93-85.73a13,13,0,0,0-2.31,6.22,11.52,11.52,0,0,0,1.56-3A11.82,11.82,0,0,0,498.21,233.55Zm-27.24,88a11.88,11.88,0,0,0-3-1.57,11.53,11.53,0,0,0-3.27-.74,13,13,0,0,0,6.23,2.31Zm29.11,26.77a12.94,12.94,0,0,0-6.23-2.31,11.22,11.22,0,0,0,3,1.56A11.89,11.89,0,0,0,500.08,348.36Zm45-25.17a8.77,8.77,0,0,0,1.51.93l-.23-.76A9,9,0,0,0,545,323.19ZM524.2,293.27A13,13,0,0,0,518,291a11.52,11.52,0,0,0,3,1.56A11.82,11.82,0,0,0,524.2,293.27Zm-23.33,29.47a13,13,0,0,0-6.23-2.31,12.94,12.94,0,0,0,6.23,2.31ZM487,280.47a13,13,0,0,0-6.22-2.31,11.56,11.56,0,0,0,3,1.57A11.81,11.81,0,0,0,487,280.47Zm-29.33-16.82a12.08,12.08,0,0,0-3-1.56,11.82,11.82,0,0,0-3.26-.75,11.22,11.22,0,0,0,3,1.56A11.81,11.81,0,0,0,457.67,263.65Zm52.46-9.83a11.77,11.77,0,0,0-3-1.57,11.39,11.39,0,0,0-3.26-.74,12.94,12.94,0,0,0,6.23,2.31Z" style="fill:#37474f"></path><path d="M389.74,342c6.58,9.41,24.5,11.21,69.2,20,6.18,1.21,26.48-40.13,19.94-41.77-8.24-2.05-40.64-8.25-43.07-8.41C415.34,310.46,385.27,335.59,389.74,342Z" style="fill: rgb(255, 196, 192);"></path><path d="M469.94,318.13s18.93,2.87,28.42,7.45c12.69,6.14,21.13,16.66,24.4,21.29,6.82,9.65,16.65,37.71,9.06,41.95-6.87,3.84-15.46-25.35-15.46-25.35s13.67,28.31,4.55,31.41-17.17-31.35-17.17-31.35,13.4,29.41,3.49,31.12c-7.49,1.29-16.54-29.5-16.54-29.5s11.34,25.36,3.7,27C485.94,394,475.8,366.1,475.8,366.1c-20.14.95-30.12-6.84-36.56-13.22C437.68,351.33,469.94,318.13,469.94,318.13Z" style="fill: rgb(255, 196, 192);"></path><path d="M512.26,353.37c1.72,3.27,3.49,6.57,4.92,10s2.74,6.87,3.85,10.4a63.5,63.5,0,0,1,3,14.13c-1.44-8.48-6.37-20.76-7.8-24.17s-2.68-6.88-4.11-10.29C512.09,353.34,512.21,353.3,512.26,353.37Z" style="fill:#263238"></path><path d="M499.85,358.31c2,4.27,4.19,8.43,6,12.79s3.19,8.62,4.71,13.07c.12.34-.11.29-.24-.05-1.7-4.39-3.61-8.31-5.36-12.68s-3.33-8.8-5.24-13.09C499.71,358.29,499.82,358.25,499.85,358.31Z" style="fill:#263238"></path><path d="M488.44,360.64c3.42,6.36,5.67,13.35,7.72,20.26.1.34-.18.25-.31-.1-2.44-6.78-4.3-12.12-7.63-20C488.16,360.63,488.37,360.5,488.44,360.64Z" style="fill:#263238"></path><path d="M473.89,318.13l-39.16,43.61s-39.6-9.09-45.44-19.24c-3.84-6.69,26-33.77,48.48-30.61Z" style="fill:#455a64"></path><path d="M440.89,348.18a11.57,11.57,0,0,1,1,3.2,11.42,11.42,0,0,1-1.77-2.84,11.82,11.82,0,0,1-1-3.2A12,12,0,0,1,440.89,348.18Zm-30.76-8.12a12.17,12.17,0,0,0,1,3.2,11.76,11.76,0,0,0,1.78,2.84,11.46,11.46,0,0,0-1-3.2A12,12,0,0,0,410.13,340.06Zm18.34-4.54a12.93,12.93,0,0,0,6-2.77,12.17,12.17,0,0,0-3.2,1A12,12,0,0,0,428.47,335.52Zm-15.8-17a12.94,12.94,0,0,0-2.31,6.23,12.94,12.94,0,0,0,2.31-6.23Zm39.69,9.44a12.94,12.94,0,0,0-2.31,6.23,11.46,11.46,0,0,0,1.57-3A11.73,11.73,0,0,0,452.36,327.91ZM471,321.59a11.88,11.88,0,0,0-3-1.57,11.53,11.53,0,0,0-3.27-.74,13,13,0,0,0,6.23,2.31ZM437.62,318a11.52,11.52,0,0,0-3-1.56,11.15,11.15,0,0,0-3.26-.75,13,13,0,0,0,6.22,2.31Zm-12.33,38.34a11.84,11.84,0,0,0-3-1.56,11.54,11.54,0,0,0-3.27-.75,13,13,0,0,0,6.23,2.31Zm-33-22.15a12.66,12.66,0,0,0,2.32,1.11,11.74,11.74,0,0,0,3.27.76,12.47,12.47,0,0,0-3-1.57,14.6,14.6,0,0,0-2.35-.65Z" style="fill:#37474f"></path><path d="M410.92,319c3.63-2.63,13.85-8.76,26.88-7.13.12,0,.12.21,0,.2-9.82-.28-23.08,4.86-26.79,7.1C410.91,319.2,410.83,319.05,410.92,319Z" style="fill:#263238"></path><path d="M424,354.44c4.05-5,8.36-9.83,12.69-14.62s8.65-9.6,13.1-14.29c2.51-2.65,5-5.31,7.62-7.87.06-.07.19,0,.13.1-4,5-8.34,9.85-12.63,14.66s-8.65,9.61-13,14.35c-2.48,2.68-5,5.31-7.62,7.88C424.14,354.77,423.9,354.59,424,354.44Z" style="fill:#263238"></path><path d="M474,317.57a55.69,55.69,0,0,0-7.34-1.67c-2.47-.47-4.95-.89-7.44-1.29-4.93-.79-15.3-3-24.42-3-.1,0,.42.49.52.48,4.34-.23,35.44,6,38,6.14a3.66,3.66,0,0,0-.28.52c-.05.12.08.29.21.19.32-.21.55-.48.85-.72A.36.36,0,0,0,474,317.57Z" style="fill:#263238"></path><path d="M588.89,189.58c.23-5.34-.85-29.91-2.68-36.69s-8.51-25.87-13.84-25-3.82,6.62-3.82,6.62-4.09-7.62-9.38-6.25-2.64,10.24-2.64,10.24-4.78-7.52-9.95-5.78-1,10.21-1,10.21-4-7.07-7.71-3.84c-4.4,3.88,4.54,16.08,6,23.71.33,1.73,4.22,35.58,4.22,35.58Z" style="fill: rgb(255, 196, 192);"></path><path d="M545.22,142.21c6.55,9,7.86,14.06,8.59,25a.17.17,0,0,0,.34,0c.26-10.76-.47-17.36-8.52-25.34C545.24,141.48,544.9,141.78,545.22,142.21Z" style="fill:#263238"></path><path d="M556,137.8c6,9.93,7.46,15.42,9.06,26.81,0,.16.3.14.29,0-.64-11.3-1.52-17.86-8.8-27C556.22,137.16,555.72,137.35,556,137.8Z" style="fill:#263238"></path><path d="M568.62,135.1c5.1,10,7,16,7.11,27.24a.21.21,0,0,0,.42,0c1-11.5-1.31-18.93-7.21-27.38C568.54,134.4,568.3,134.47,568.62,135.1Z" style="fill:#263238"></path><path d="M548.41,205.38s-10.15-9.55-13.68-14.73-9.6-29.34-4.46-31c6.64-2.07,12.89,11.19,15.1,18.08,0,0,15.35-4.81,21.9,3.73S548.41,205.38,548.41,205.38Z" style="fill: rgb(255, 196, 192);"></path><path d="M532.28,159.73c7.42,2.48,9.74,11.71,12.39,18.24a.64.64,0,0,0,1,.28c6.57-1.59,16.3-1.91,21.63,2.82a.16.16,0,0,0,.24-.22c-5-5.86-14.62-6.32-21.71-4.12-2.6-6.73-5.34-15.89-13.55-17.07C532.26,159.65,532.24,159.72,532.28,159.73Z" style="fill:#263238"></path><path d="M486.45,236.86c6.68,11.55,45.27,47.17,78.9,53.34,4.57.84,21.95-2.83,25.58-14.36,6.47-20.53,1.3-62.92-2-88.43-.65-5-46.91,5.26-45.71,12.87,1.33,8.42,6.28,39.38,5.52,39.73-2.77,1.28-32.34-11.48-51.75-15.67C483.23,221.38,481.31,228,486.45,236.86Z" style="fill: rgb(255, 196, 192);"></path><path d="M595.45,200l-52.72,11.41s4.8,26.94,3.85,26.78-37.92-13.64-52.18-15.06-14.27,4.85-7,16.62S542,291,565.32,291c11.88,0,22.94-7.61,25.09-11.24C597.11,268.42,595.45,200,595.45,200Z" style="fill:#455a64"></path><path d="M595.45,200l-52.72,11.41s4.8,26.94,3.85,26.78-37.92-13.64-52.18-15.06-14.27,4.85-7,16.62S542,291,565.32,291c11.88,0,22.94-7.61,25.09-11.24C597.11,268.42,595.45,200,595.45,200Z" style="fill:#455a64"></path><path d="M518.12,234.72a12.81,12.81,0,0,0,2.77,6,11.8,11.8,0,0,0-1-3.2A12,12,0,0,0,518.12,234.72Zm41.9,47a12.79,12.79,0,0,0,2.76,6,11.46,11.46,0,0,0-1-3.2A12.45,12.45,0,0,0,560,281.77Zm31-32.26a12.4,12.4,0,0,0,1,3.2,11.4,11.4,0,0,0,1.78,2.83,11.5,11.5,0,0,0-1-3.19A12.28,12.28,0,0,0,591.06,249.51Zm-45.9.13a12.93,12.93,0,0,0,2.77,6,12.93,12.93,0,0,0-2.77-6Zm23.1,13.29a11.8,11.8,0,0,0,1,3.2A11.17,11.17,0,0,0,571,269a11.91,11.91,0,0,0-1-3.2A12.08,12.08,0,0,0,568.26,262.93Zm-2-32.4a12.84,12.84,0,0,0,2.77,6,11.85,11.85,0,0,0-1-3.19A11.57,11.57,0,0,0,566.22,230.53Zm23.46-24.09a12,12,0,0,0,1,3.21,11.3,11.3,0,0,0,1.78,2.83,12.17,12.17,0,0,0-1-3.2A12.63,12.63,0,0,0,589.68,206.44Zm-93.77,33.33a12.18,12.18,0,0,0,1.56-3,11.46,11.46,0,0,0,.74-3.26,11.67,11.67,0,0,0-1.56,3A11.46,11.46,0,0,0,495.91,239.77Zm31.22,21.55a11.42,11.42,0,0,0,1.56-3,11.82,11.82,0,0,0,.75-3.26,11.84,11.84,0,0,0-1.56,3A11.54,11.54,0,0,0,527.13,261.32ZM550.57,237a12.94,12.94,0,0,0,2.31-6.23,12,12,0,0,0-1.56,3A11.89,11.89,0,0,0,550.57,237Zm3,35.14a12.18,12.18,0,0,0,1.56-3,11.81,11.81,0,0,0,.75-3.27,12.94,12.94,0,0,0-2.31,6.23Zm30.07-3.8a11.67,11.67,0,0,0,1.56-3,11.91,11.91,0,0,0,.75-3.26,13,13,0,0,0-2.31,6.22Zm-9.48-49.67a12.36,12.36,0,0,0,1.56-3,11.89,11.89,0,0,0,.75-3.27,13,13,0,0,0-2.31,6.23Zm3.55,28.19a11.9,11.9,0,0,0,1.56-3,11.45,11.45,0,0,0,.74-3.27,12.24,12.24,0,0,0-1.56,3A11.38,11.38,0,0,0,577.75,246.9Zm-73.85,4.6a12.68,12.68,0,0,0,6.23,2.31,12.06,12.06,0,0,0-3-1.56A11.82,11.82,0,0,0,503.9,251.5Zm55.77-1.28a11.67,11.67,0,0,0,3,1.56,11.91,11.91,0,0,0,3.26.75,11.84,11.84,0,0,0-3-1.56A11.48,11.48,0,0,0,559.67,250.22Zm-5.26-33.13a11.07,11.07,0,0,0,3,1.56,11.55,11.55,0,0,0,3.26.75,12.18,12.18,0,0,0-3-1.56A11.82,11.82,0,0,0,554.41,217.09Zm29.92,10.4a11.52,11.52,0,0,0,3,1.56,11.81,11.81,0,0,0,3.27.75,12.94,12.94,0,0,0-6.23-2.31Zm-49.77,44.93a11.42,11.42,0,0,0,3,1.56,11.55,11.55,0,0,0,3.26.75,12.18,12.18,0,0,0-3-1.56A11.81,11.81,0,0,0,534.56,272.42Zm40.07,8.76a12.68,12.68,0,0,0,6.23,2.31,12.94,12.94,0,0,0-6.23-2.31Zm-43.18-44.6a11.56,11.56,0,0,0,3,1.57,11.88,11.88,0,0,0,3.27.74,12.18,12.18,0,0,0-3-1.56A11.81,11.81,0,0,0,531.45,236.58Z" style="fill:#37474f"></path><path d="M546.18,238.45a81.59,81.59,0,0,0,2.09,11.93c.89,4,2.13,7.84,3.31,11.74,0,.09.16,0,.14-.05-1-3.92-1.75-7.91-2.61-11.87s-1.47-7.94-2.48-11.84C546.57,238.1,546.16,238.2,546.18,238.45Z" style="fill:#263238"></path><path d="M545.83,221.38c6.11-1.52,12.29-2.71,18.47-3.89s12.38-2.36,18.6-3.38c3.51-.58,7-1.17,10.56-1.63.09,0,.13.14,0,.16-6.1,1.52-12.28,2.74-18.44,4s-12.38,2.37-18.59,3.47c-3.51.62-7,1.17-10.56,1.63C545.74,221.71,545.66,221.42,545.83,221.38Z" style="fill:#263238"></path><path d="M528.43,275.23c-1-.86-2-1.59-3.06-2.4l-3-2.31c-2-1.56-4.07-3.11-6.1-4.68-4.06-3.14-8-6.38-12.07-9.57q-3.44-2.73-6.81-5.54c-.09-.07-.22.06-.13.14,2.77,2.6,5.56,5.18,8.44,7.66l-1.09-.53c-1.1-.55-2.18-1.14-3.26-1.74a.08.08,0,1,0-.08.14,28.42,28.42,0,0,0,3.15,2c.53.29,1.08.56,1.63.81l.8.35h0c.65.55,1.3,1.1,2,1.64q6,4.86,12.2,9.37c1.14.84,2.3,1.65,3.49,2.43s2.44,1.72,3.75,2.44C528.41,275.46,528.53,275.31,528.43,275.23Z" style="fill:#263238"></path><path d="M468.19,242.53c6.73,1.32,17.78-9.32,22-17.76.29-.58-.82-6.51-1.81-13.78-.59-4.42-1.14-9.35-1.32-13.88,0-.94-28.18,8-28.18,8s3.17,9.4,3.43,17.31a9.44,9.44,0,0,1-.12,1.87c0,.08,0,.19,0,.31C461.7,228.18,461.69,241.25,468.19,242.53Z" style="fill: rgb(255, 196, 192);"></path><path d="M465.06,224.65a16.5,16.5,0,0,1-2.92,0c0-.12,0-.21,0-.31a9.29,9.29,0,0,0,.12-1.86c-.26-7.91-3.42-17.31-3.42-17.31s22.84-7.27,27.39-8C485.58,202.37,481.82,223.63,465.06,224.65Z" style="fill:#263238"></path><path d="M494,169.27c2.19,10.33-5.65,38.92-13.37,44.77-11.18,8.49-28.24,7.91-35.13-5.25-6.68-12.76,4.19-49.83,12.69-55C470.75,146.12,490.79,154,494,169.27Z" style="fill: rgb(255, 196, 192);"></path><path d="M467.44,185.74c0-.07.12.14.1.21-.58,1.92-.92,4.2.65,5.31a.06.06,0,0,1-.05.11C466.1,190.49,466.58,187.46,467.44,185.74Z" style="fill:#263238"></path><path d="M469.7,184.19c3.16.6,1.73,6.89-1.2,6.33S467.05,183.69,469.7,184.19Z" style="fill:#263238"></path><path d="M456.34,183c0-.08-.17.06-.19.14-.38,2-1.14,4.14-3,4.39-.06,0-.08.1,0,.11C455.31,187.84,456.3,184.94,456.34,183Z" style="fill:#263238"></path><path d="M455.07,180.59c-3.08-1-4.76,5.27-1.9,6.15S457.65,181.39,455.07,180.59Z" style="fill:#263238"></path><path d="M473.16,181.1a26.1,26.1,0,0,1-2.43-1,4.27,4.27,0,0,1-2.28-1.54,1.37,1.37,0,0,1,.33-1.63,3.37,3.37,0,0,1,3.42-.12,4.94,4.94,0,0,1,2.71,2.33A1.45,1.45,0,0,1,473.16,181.1Z" style="fill:#263238"></path><path d="M453.36,176.87a23.28,23.28,0,0,0,2.64-.08,4.28,4.28,0,0,0,2.68-.59,1.37,1.37,0,0,0,.3-1.64,3.39,3.39,0,0,0-3.14-1.37,4.94,4.94,0,0,0-3.38,1.18A1.45,1.45,0,0,0,453.36,176.87Z" style="fill:#263238"></path><path d="M465.12,203.55c-.57.35-1.17.87-1.89.77a5.25,5.25,0,0,1-2-1,.07.07,0,0,0-.1.08,2.69,2.69,0,0,0,2.23,1.62,2.13,2.13,0,0,0,1.92-1.38C465.35,203.58,465.21,203.5,465.12,203.55Z" style="fill:#263238"></path><path d="M464.4,197.26a6.78,6.78,0,0,1-5.09,1.94,8.67,8.67,0,0,1-2.41-.43,1.91,1.91,0,0,1-.44-.16,4.45,4.45,0,0,1-.42-.16.5.5,0,0,1-.29-.53h0a.6.6,0,0,1,.06-.19v0l0-.17c.31-1.51,1-3.75,1-3.75-.61.15-3.69.77-3.47,0,1.87-6.39,3.94-13.5,7.14-19.47a.18.18,0,0,1,.34.13c-1.54,6.21-4.17,12.12-5.82,18.34a11.85,11.85,0,0,1,3.34-.24c.2.11-1.36,4.32-1.44,5a.14.14,0,0,0,0,.07c2.44.9,4.51.57,7.34-.57C464.43,197,464.56,197.13,464.4,197.26Z" style="fill:#263238"></path><path d="M457.91,199a8.2,8.2,0,0,0,3.06,2.84,3.66,3.66,0,0,0,2.23.34c1.66-.28,1.83-1.76,1.65-3.06a9.17,9.17,0,0,0-.55-2A10.65,10.65,0,0,1,457.91,199Z" style="fill:#263238"></path><path d="M461,201.84a3.66,3.66,0,0,0,2.23.34c1.66-.28,1.83-1.76,1.65-3.06C463.09,199.14,461.27,200.17,461,201.84Z" style="fill:#ff9abb"></path><path d="M488.44,194.79s10.46-15.48,10-24.75c-.2-4.19-5.75-7.28-5.75-7.28a9.43,9.43,0,0,0-2.5-9.63c-4.7-4.89-16.7-4.44-16.7-4.44s-7.18-11.57-18.36-7.68-4.65,16.66-4.65,16.66-4.31,5.5,5.29,10.45c9.34,4.82,29.1,1.52,29.1,1.52a68.17,68.17,0,0,0-.71,20.26A6.2,6.2,0,0,0,488.44,194.79Z" style="fill:#263238"></path><path d="M471.62,148.74a19.13,19.13,0,0,1,7.77-1,20.88,20.88,0,0,1,6.89,1.43c3.87,1.61,7.23,4.69,7.67,9a8,8,0,0,1-1.83,6c-.06.06-.16,0-.1-.11,2.69-3,1.6-8-.88-10.71-2.81-3.11-7.28-4.46-11.35-4.84a33.89,33.89,0,0,0-8.11.45A.12.12,0,0,1,471.62,148.74Z" style="fill:#263238"></path><path d="M447.06,145.9c1.06-3,3.79-4.86,6.79-5.65a16,16,0,0,1,10.35.88,20.15,20.15,0,0,1,8.16,6.7c.05.07-.06.15-.11.09-3.88-5.08-10.18-8.17-16.62-7.14-2.87.46-5.8,1.78-7.25,4.44a9.62,9.62,0,0,0-.16,8.14,18,18,0,0,0,6.69,7.41c.06,0,0,.14-.06.1a18.5,18.5,0,0,1-6.72-6.34A10.45,10.45,0,0,1,447.06,145.9Z" style="fill:#263238"></path><path d="M453.39,168.52a33,33,0,0,0,13.66,3.08,68,68,0,0,0,14.59-1.27c2.8-.53,5.59-1.16,8.35-1.85a.07.07,0,0,1,0,.14A74.07,74.07,0,0,1,475,172.46a37.25,37.25,0,0,1-14.3-.84,31.8,31.8,0,0,1-7.32-3C453.28,168.58,453.33,168.49,453.39,168.52Z" style="fill:#263238"></path><path d="M484,193.18s7.56-8.67,11.57-5.87-2.39,15.85-7.58,17.18a5.12,5.12,0,0,1-6.52-3.46Z" style="fill: rgb(255, 196, 192);"></path><path d="M493.62,191a.07.07,0,0,1,0,.13c-3.65,1-5.84,4.09-7.49,7.32,1.18-1.18,2.67-1.74,4.27-.31.09.07,0,.21-.11.17a3.16,3.16,0,0,0-3.56.72,15.11,15.11,0,0,0-1.94,2.61c-.2.3-.75.07-.59-.28,0,0,0-.05,0-.08C484.64,196.82,488.78,190.94,493.62,191Z" style="fill:#263238"></path><path d="M460,230.13c0-.06.1,0,.1,0,0,5.57.31,18.46,9.87,17.2,3.85-.51,7.25-2.88,10.06-5.17a51.3,51.3,0,0,0,7.69-7.91,72,72,0,0,0,7-10c.08-.15.31,0,.24.14a52.83,52.83,0,0,1-6.18,10.45,44.11,44.11,0,0,1-8.28,8.73c-3,2.37-6.64,4.74-10.73,5.1a7.81,7.81,0,0,1-8.22-4.89C459.78,239.58,459.54,234.56,460,230.13Z" style="fill:#263238"></path></g></svg>